<svg xmlns="http://www.w3.org/2000/svg" viewBox="0 0 192 192" width="192" height="192">
  <rect width="192" height="192" rx="24" fill="#3b82f6"/>
  <g fill="white">
    <!-- Staff lines -->
    <rect x="24" y="60" width="144" height="2"/>
    <rect x="24" y="76" width="144" height="2"/>
    <rect x="24" y="92" width="144" height="2"/>
    <rect x="24" y="108" width="144" height="2"/>
    <rect x="24" y="124" width="144" height="2"/>
    <!-- Quarter note -->
    <ellipse cx="100" cy="108" rx="14" ry="10" transform="rotate(-20 100 108)"/>
    <rect x="110" y="58" width="4" height="52"/>
    <!-- Treble clef simplified -->
    <path d="M50 70 Q45 85 50 100 Q55 115 50 130 M50 90 Q60 85 55 75 Q50 65 45 75 Q40 85 50 90"
          stroke="white" stroke-width="4" fill="none" stroke-linecap="round"/>
  </g>
</svg>
